<svg xmlns="http://www.w3.org/2000/svg" xml:space="preserve" width="1500" height="1500" data-id="lg_lRhaZdRYkiZCKSgyNZ" data-version="1" viewBox="0 0 1500 1500"><path fill="#001f3f" stroke="transparent" d="M0 0h1500v1500H0z"/><g data-padding="20"><g transform="translate(108.303 113.833)scale(1.70311)"><filter id="a" width="140%" height="140%" x="-20%" y="-20%"><feGaussianBlur in="SourceAlpha"/><feOffset result="oBlur"/><feFlood flood-color="#465454" flood-opacity="1"/><feComposite in2="oBlur" operator="in"/><feMerge><feMergeNode/><feMergeNode in="SourceGraphic"/></feMerge></filter><g filter="url(#a)"><rect width="417.174" height="559.35" x="168.193" y="93.858" fill="none" rx="0" ry="0"/><g transform="translate(-5.87 -38.72)"><linearGradient id="b" x1="0" x2=".001" y1="0" y2="0" gradientUnits="objectBoundingBox"><stop offset="0%" stop-color="#6ee2f5"/><stop offset="100%" stop-color="#6454f0"/></linearGradient><path fill="url(#b)" d="M959.33 744.533v179.34l-13.66 2.18q-13.65 2.17-34.68 4.95t-43.99 4.96q-22.96 2.17-41.81 2.17-51.73 0-95.84-14.26t-76.86-41.09-50.87-64.53q-18.13-37.71-18.13-84.6t19.58-84.23q19.57-37.34 54.86-63.57 35.29-26.22 83.03-40.12 47.73-13.9 104.05-13.9 31.9 0 52.93 3.51 21.03 3.5 31.54 7.13 10.51 3.62 11 3.62v116.75q-35.53-10.88-65.74-10.88-38.68 0-64.18 14.38-25.49 14.38-38.06 36.25-12.57 21.88-12.57 44.36 0 26.1 14.38 42.78 14.38 16.67 39.52 16.67 5.56 0 11.12-.84 5.55-.85 9.66-2.54.49-8.94.49-23.08v-34.93q46.4 0 71.9-.12t36.62-.12 13.41-.12Z" transform="translate(-394.63 -361.45)"/></g></g></g><path fill="transparent" stroke="transparent" stroke-width="1.789" d="M377.013 250h745.974v1000H377.013z"/></g></svg>